<?xml version="1.0" encoding="UTF-8"?><svg id="Peace_fingers" xmlns="http://www.w3.org/2000/svg" viewBox="0 0 128 128"><path d="M93.08038,59.53583c.36475-.85889,1.0415-2.67108,1.47461-5.15662,.3736-2.14301,.93762-5.3811-.12598-9.18762-.33075-1.18323-.78406-2.8045-2.11151-4.43903-.82587-1.01782-2.36346-2.91229-5.00647-3.17999-1.94647-.19989-3.51874,.58789-4.46771,1.24664-.23474-.33728-.492-.6778-.79327-1.0188-.914-1.03406-2.44373-2.76459-4.97797-3.23022-2.27771-.41901-4.21027,.3678-5.43945,1.10516,.32141-13.55157,.50452-22.77008,.5127-24.52185,.00146-.34894-.01721-1.60895-.33173-3.16376-.2323-1.14728-.43268-2.13855-1.1424-3.20215-.35291-.52765-1.1463-1.51886-2.49487-2.22913-.91742-.48328-2.42694-.99915-4.42279-.71313-.52905,.07727-3.25922,.58423-5.01733,2.9964-1.18909,1.63159-1.35498,3.36804-1.40961,3.93896-.34552,3.62347-1.15417,15.00867-2.02777,29.58081-5.18915-12.34497-9.0592-21.4184-9.91956-23.32367-.12744-.28204-.51428-1.1394-1.31952-2.02094-.38885-.42572-1.57202-1.72211-3.6333-2.20642-2.48804-.58618-4.49512,.42377-5.24426,.88446-.47052,.28986-1.90179,1.17188-2.6012,2.89404-.76532,1.88556-.22687,3.69928-.02411,4.38239l.6507,2.17102c1.81171,6.03174,6.62482,22.05487,7.97583,27.50482,.65692,2.65161,1.5365,6.82288,1.69434,12.52356-1.05505,1.9917-1.4552,3.87738-1.78491,5.78424-.31549,1.82501-1.15417,6.67206,.4671,12.4577,.36572,1.30579,.62903,1.80927,2.09033,4.60388,.64276,1.22949,1.52478,2.91669,2.76166,5.33038,2.70551,5.2821,4.19586,8.19196,4.76086,9.71277,1.77087,4.76929,2.57611,9.15662,2.96295,11.26514,.34064,1.85651,.51733,3.32373,.59259,3.95178,.35474,2.94623,.47644,6.73517,.36053,10.98663h1.51239c.11584-4.30798-.00922-8.15906-.37177-11.16925-.07727-.63983-.25739-2.13953-.60632-4.04181-.39478-2.15088-1.21619-6.62579-3.03284-11.5191-.59607-1.60455-2.10065-4.54242-4.83282-9.87524-1.23932-2.41907-2.12323-4.10974-2.76752-5.34167-1.46326-2.79852-1.65082-3.15784-1.97418-4.31104-1.52917-5.45734-.73285-10.05975-.43262-11.79224,.36029-2.08691,.79932-4.13879,2.18774-6.29559,.44989-.69836,1.28711-1.99823,2.73853-3.04462,.72498-.52319,1.74432-1.0907,2.12775-1.30432,.87213-.48578,1.54987-.80719,1.79596-.92383l.71759-.34601c2.27588-1.10443,7.60577-3.68988,17.14087-7.47675,1.15515-.45923,2.59235-1.02771,4.07971-.53949,1.7876,.58771,2.64105,2.33447,2.79364,2.67853,.49268,1.11133,.56305,2.35706,.20227,3.60278-.30756,1.06555-.87952,1.81812-1.64288,2.62036-1.40863,1.47803-3.71649,3.47925-9.10638,5.85016-1.2561,.55267-3.17169,1.18024-5.38947,1.90668l-.09161,.0296-.0083-.00397-.62311,1.37714c1.81323,.82092,5.2019,2.78131,7.5191,6.68384,1.31714,2.21777,2.10559,4.77124,2.27936,7.38428l1.50903-.1004c-.19-2.84875-1.05035-5.63452-2.48804-8.0556-1.86395-3.13916-4.35602-5.11847-6.33069-6.30383,1.70221-.56213,3.17035-1.06622,4.23254-1.53375,1.28442-.565,2.39618-1.11096,3.37628-1.63745,.52466,.57178,2.62714,2.65283,5.44861,2.65283l.07086-.00049c1.16571-.01447,2.14331-.3634,2.9776-.83527,.61456,.99042,2.03638,2.82855,4.43567,3.42712,.45135,.11273,.96863,.18903,1.54205,.18903,1.6424,0,3.74255-.62756,6.0553-2.83105,.67657-.64459,1.17419-1.31091,1.59686-2.02307,1.61743,5.38843,1.51941,9.69183,1.28882,11.88153-.61029,5.80829-3.13177,11.46985-4.80072,15.21637-1.45935,3.27698-2.57019,5.94067-2.57269,5.94757-.38831,.86133-.64771,1.42145-.84705,1.8526-.29675,.64081-.46411,1.00256-.71906,1.62616-1.18323,2.8877-1.73297,5.27234-2.09723,6.85077-1.01782,4.41339-1.24371,8.01276-1.36481,9.94702-.01331,.21216-.01526,.26233-.03937,.8092l-.11963,2.68976c-.112,2.47565-.20947,4.55402-.28223,6.08252h1.51349c.07239-1.52228,.1684-3.57471,.27875-6.01459l.12012-2.69177c.02313-.52814,.02509-.57684,.0379-.78107,.11859-1.8905,.33911-5.40912,1.32941-9.70148,.37402-1.62177,.88641-3.84351,2.02234-6.61743,.24561-.59998,.40704-.94794,.6925-1.56415,.20087-.43414,.46222-.99866,.86182-1.88611,.01086-.02655,1.1153-2.6745,2.56677-5.93378,1.70789-3.83362,4.28839-9.62665,4.92383-15.6731,.26343-2.50696,.36841-7.63617-1.82751-13.97137,.12665-.28906,.25354-.58392,.38489-.89264Zm-24.34692-13.11969c-9.58673,3.80756-14.9516,6.41071-17.24268,7.52203l-.72748,.35095c-.23425,.11072-.94647,.44885-1.86145,.95831-.40503,.2254-1.48047,.8244-2.27686,1.39923-1.03644,.74707-1.78864,1.58539-2.3327,2.3028-.29437-4.73993-1.05414-8.29639-1.64117-10.66595-1.35992-5.4859-6.18036-21.53461-7.99554-27.57617l-.64923-2.16663c-.16144-.54382-.59009-1.9884-.0246-3.38275,.51337-1.26398,1.58881-1.92645,1.99335-2.17596,.5882-.36224,2.16614-1.15515,4.10535-.69989,1.60602,.3775,2.55194,1.41406,2.86304,1.75464,.64227,.70331,.95483,1.39581,1.05768,1.62323,.92432,2.04749,5.35254,12.43896,11.16278,26.28467,.13586,.32483,.47839,.51282,.8244,.45282,.3465-.05908,.60638-.34998,.62708-.70087,.94446-16.09448,1.84668-28.89722,2.21631-32.77216,.04474-.46857,.18109-1.89545,1.1261-3.19183,1.43127-1.96381,3.75391-2.35315,4.01276-2.39105,1.27673-.18359,2.45404,.00244,3.50092,.55469,1.05377,.55518,1.66949,1.32349,1.94269,1.73151,.51874,.77716,.67871,1.48248,.91693,2.66174,.28644,1.41406,.30371,2.54413,.30219,2.85712-.01013,2.16199-.28809,15.75238-.76483,34.85022-.41705,.13684-.80072,.28656-1.13501,.41931Zm6.37036,16.50494l-.05164,.00049c-1.8974,0-3.44342-1.28467-4.08624-1.91089,2.45221-1.46124,3.86127-2.7428,4.85303-3.78418,.7934-.83276,1.58484-1.80237,2.00073-3.24255,.46069-1.59222,.3667-3.19525-.27264-4.63635-.19836-.4469-1.3092-2.7149-3.70319-3.5014-.85858-.28296-1.68628-.30206-2.45367-.20178,.07056-2.83337,.13666-5.54144,.19812-8.10931,.63348-.49994,2.71167-1.93976,5.21014-1.47748,2.02087,.37109,3.28333,1.79895,4.11859,2.7439,1.28363,1.45245,1.81317,2.91327,2.20007,3.97986,.3952,1.0882,1.26685,4.0285,.8313,7.81635-.14618,1.27429-.5296,3.25977-1.5238,5.48199-.71271,1.5932-1.44904,3.24054-3.13867,4.73383-1.10596,.97748-2.35907,2.0849-4.18213,2.10754Zm13.98596,.36719c-2.07507,1.9776-4.21216,2.76312-6.18774,2.2699-1.92535-.48065-3.07544-2.02698-3.55206-2.8139,.34113-.27167,.65295-.5462,.93805-.79822,1.93427-1.70935,2.77496-3.58997,3.51666-5.24915,1.07294-2.39795,1.48737-4.54681,1.64587-5.92688,.47247-4.10681-.48041-7.31537-.91205-8.50452-.21283-.58673-.48761-1.33362-.91113-2.15106,.73846-.52808,1.99988-1.1925,3.53107-1.03778,2.01794,.20477,3.24939,1.72217,3.98523,2.62878,1.13007,1.39142,1.51788,2.77887,1.82947,3.89319,.97107,3.47729,.44244,6.51257,.09253,8.52069-.40753,2.33691-1.03754,4.02655-1.37714,4.82635-.77521,1.82208-1.33533,3.13867-2.59875,4.34259Z"/></svg>